<?xml version="1.0" encoding="UTF-8"?>
<svg xmlns="http://www.w3.org/2000/svg" viewBox="0 0 3500 3500">
  <defs>
    <style>
      .cls-1 {
        fill: #fff;
      }

      .cls-2 {
        fill: none;
        stroke: #c72b2b;
        stroke-miterlimit: 10;
        stroke-width: 22.54px;
      }
    </style>
  </defs>
  <g id="Layer_1" data-name="Layer 1">
    <rect x="3.29" y="3" width="3494.12" height="3494.12"/>
  </g>
  <g id="Primary_Logo_Emblem">
    <path class="cls-1" d="M1713.76,887.47v765.88c0,.76-3.17,1.92-2.51,3.76h67.69v-769.64h122.84v121.59l463.79,465.04v-368.52h122.84v674.37h-85.24c144.11,106.33,186.59,299.56,146.69,468.83-44.64,189.36-207.12,337.75-401.46,360.66-122.82,6.2-246.39,1.23-369.46,2.82v-832.31h-65.18v832.31h-151.67l-497.62-487.62-7.54-3.74v491.36h-120.33v-1569.36l299.62,285.18,477.54-440.62ZM1590.92,1170.75l-352.85,320.53-181.13-170.11v335.93h533.98v-486.35ZM1901.79,1178.27v478.83h463.79c-.28-6.34,1.68-13.49-2.37-18.94l-461.42-459.89ZM1590.92,1779.95h-533.98v208.29h533.98v-208.29ZM1901.79,2542.06c168.99,3.45,323.74,10.81,456.3-109.02,218.26-197.29,167.07-621.1-159.25-653.08l-297.05-.02v82.73l279.63-.1c313.74,43.14,292.41,463.36,26.14,575.37-97.83,41.15-202.27,22.33-305.77,26.41v77.72ZM1901.79,2351.53h186.77c37.43,0,101.48-31.17,130.29-55.23,76.56-63.93,110.59-194.44,43.89-276.89-14.81-18.3-55.1-46.43-78.91-46.43h-282.03v378.55ZM1590.92,2110.86h-373.54l371.07,368.52c7.01-1.91,2.46-4.87,2.46-6.27v-362.26Z"/>
  </g>
  <g id="Primary_Logo_Accent_Sauare" data-name="Primary_Logo_Accent Sauare">
    <rect class="cls-2" x="785.65" y="785.35" width="1929.41" height="1929.41" rx="76.81" ry="76.81"/>
  </g>
</svg>